<?xml version="1.0" encoding="utf-8"?>
<!-- Generator: Adobe Illustrator 26.1.0, SVG Export Plug-In . SVG Version: 6.00 Build 0)  -->
<svg  xmlns="http://www.w3.org/2000/svg" xmlns:xlink="http://www.w3.org/1999/xlink" x="0px" y="0px"
	 viewBox="0 0 32 32" enable-background="new 0 0 32 32" xml:space="preserve">
<g>
	<path fill="#FFFFFF" d="M20.6,11.3l3.8,4c0.2,0.2,0.3,0.5,0.3,0.7c0,0.2-0.1,0.5-0.3,0.7l-3.8,4c-0.3,0.3-0.7,0.4-1,0.2
		C19.2,20.8,19,20.4,19,20v-8c0-0.4,0.2-0.8,0.6-0.9S20.3,11.1,20.6,11.3z"/>
</g>
<path fill="#FFFFFF" d="M11.4,20.7l-3.8-4c-0.2-0.2-0.3-0.5-0.3-0.7c0-0.2,0.1-0.5,0.3-0.7l3.8-4c0.3-0.3,0.7-0.4,1-0.2
	c0.4,0.2,0.6,0.5,0.6,0.9v8c0,0.4-0.2,0.8-0.6,0.9C12.1,21.1,11.7,21,11.4,20.7z"/>
</svg>
